<svg width="149" height="38" viewBox="0 0 149 38" fill="none" xmlns="http://www.w3.org/2000/svg">
<path d="M46.816 21V10.696H52.256C53.2907 10.696 54.0693 10.9413 54.592 11.432C55.1253 11.9227 55.392 12.616 55.392 13.512C55.392 14.056 55.2853 14.5147 55.072 14.888C54.8693 15.2507 54.5973 15.5333 54.256 15.736C54.7253 15.9067 55.0933 16.1573 55.36 16.488C55.6267 16.8187 55.76 17.3147 55.76 17.976C55.76 18.9573 55.472 19.7093 54.896 20.232C54.32 20.744 53.4933 21 52.416 21H46.816ZM49.392 14.888H51.488C51.936 14.888 52.2613 14.7867 52.464 14.584C52.6667 14.3813 52.768 14.0987 52.768 13.736C52.768 13.3413 52.6667 13.048 52.464 12.856C52.2613 12.6533 51.8933 12.552 51.36 12.552H49.392V14.888ZM49.392 19.16H51.744C52.2133 19.16 52.56 19.064 52.784 18.872C53.0187 18.68 53.136 18.3387 53.136 17.848C53.136 17.4533 53.024 17.16 52.8 16.968C52.576 16.7653 52.192 16.664 51.648 16.664H49.392V19.16ZM60.0395 23.816C59.6555 23.816 59.3248 23.7947 59.0475 23.752C58.7808 23.72 58.5142 23.6507 58.2475 23.544V21.752C58.4288 21.816 58.5942 21.8587 58.7435 21.88C58.9035 21.9013 59.0635 21.912 59.2235 21.912C59.6608 21.912 59.9862 21.832 60.1995 21.672C60.4235 21.5227 60.6475 21.2507 60.8715 20.856L57.4635 13.416H60.1675L62.1675 18.232L64.1355 13.416H66.8235L63.9275 20.376C63.6395 21.0693 63.3195 21.672 62.9675 22.184C62.6155 22.7067 62.2048 23.1067 61.7355 23.384C61.2662 23.672 60.7008 23.816 60.0395 23.816ZM72.2147 21.16C71.2761 21.16 70.5827 20.92 70.1347 20.44C69.6974 19.96 69.4787 19.2987 69.4787 18.456V15.368H68.4547V13.416H69.4787V11.832L72.0547 11.144V13.416H73.8947L73.7827 15.368H72.0547V18.28C72.0547 18.6427 72.1454 18.8987 72.3267 19.048C72.5081 19.1867 72.7801 19.256 73.1427 19.256C73.4521 19.256 73.7667 19.2027 74.0867 19.096V20.84C73.5854 21.0533 72.9614 21.16 72.2147 21.16ZM80.4231 21.16C79.1005 21.16 78.0391 20.8347 77.2391 20.184C76.4391 19.5227 76.0391 18.5307 76.0391 17.208C76.0391 16.0027 76.3698 15.0427 77.0311 14.328C77.6925 13.6133 78.6845 13.256 80.0071 13.256C81.2125 13.256 82.1458 13.5653 82.8071 14.184C83.4685 14.8027 83.7991 15.6347 83.7991 16.68V18.04H78.4231C78.5405 18.5413 78.8125 18.8933 79.2391 19.096C79.6765 19.288 80.2685 19.384 81.0151 19.384C81.4311 19.384 81.8525 19.3467 82.2791 19.272C82.7165 19.1973 83.0791 19.1013 83.3671 18.984V20.664C83.0045 20.8347 82.5725 20.9573 82.0711 21.032C81.5698 21.1173 81.0205 21.16 80.4231 21.16ZM78.4231 16.552H81.5591V16.216C81.5591 15.8427 81.4471 15.5493 81.2231 15.336C80.9991 15.112 80.6205 15 80.0871 15C79.4685 15 79.0365 15.128 78.7911 15.384C78.5458 15.6293 78.4231 16.0187 78.4231 16.552Z" fill="#FF005C"/>
<path d="M87.4291 21V17.208L83.7331 10.696H86.4211L88.7251 14.968L91.0291 10.696H93.7171L90.0211 17.208V21H87.4291ZM97.918 21.16C96.4567 21.16 95.3793 20.824 94.686 20.152C93.9927 19.4693 93.646 18.488 93.646 17.208C93.646 15.9387 93.9927 14.9627 94.686 14.28C95.39 13.5973 96.4673 13.256 97.918 13.256C99.3793 13.256 100.457 13.5973 101.15 14.28C101.854 14.9627 102.206 15.9387 102.206 17.208C102.206 18.488 101.859 19.4693 101.166 20.152C100.473 20.824 99.39 21.16 97.918 21.16ZM97.918 19.144C98.5153 19.144 98.942 18.9947 99.198 18.696C99.454 18.3973 99.582 17.9013 99.582 17.208C99.582 16.5147 99.454 16.0187 99.198 15.72C98.942 15.4213 98.5153 15.272 97.918 15.272C97.3313 15.272 96.91 15.4213 96.654 15.72C96.398 16.0187 96.27 16.5147 96.27 17.208C96.27 17.9013 96.398 18.3973 96.654 18.696C96.91 18.9947 97.3313 19.144 97.918 19.144ZM107.401 21.16C106.505 21.16 105.806 20.9093 105.305 20.408C104.804 19.896 104.553 19.1547 104.553 18.184V13.416H107.129V18.04C107.129 18.4667 107.23 18.7813 107.433 18.984C107.646 19.176 107.961 19.272 108.377 19.272C108.686 19.272 108.98 19.208 109.257 19.08C109.534 18.952 109.764 18.792 109.945 18.6V13.416H112.521V21H110.121L110.041 20.36C109.732 20.5947 109.358 20.7867 108.921 20.936C108.484 21.0853 107.977 21.16 107.401 21.16ZM115.432 21V13.416H117.88L117.96 14.12C118.291 13.9173 118.702 13.736 119.192 13.576C119.683 13.4053 120.174 13.2987 120.664 13.256V15.192C120.387 15.224 120.078 15.2773 119.736 15.352C119.406 15.416 119.086 15.496 118.776 15.592C118.478 15.688 118.222 15.7893 118.008 15.896V21H115.432ZM123.284 21.16C122.847 21.16 122.425 21.128 122.02 21.064C121.625 21.0107 121.257 20.92 120.916 20.792V18.632C121.172 18.7387 121.46 18.824 121.78 18.888C122.1 18.9413 122.425 18.968 122.756 18.968C123.385 18.968 123.828 18.8453 124.084 18.6C124.351 18.344 124.484 17.9227 124.484 17.336V10.696H127.06V17.816C127.06 18.8933 126.74 19.72 126.1 20.296C125.46 20.872 124.521 21.16 123.284 21.16ZM133.85 21.16C132.389 21.16 131.312 20.824 130.618 20.152C129.925 19.4693 129.578 18.488 129.578 17.208C129.578 15.9387 129.925 14.9627 130.618 14.28C131.322 13.5973 132.4 13.256 133.85 13.256C135.312 13.256 136.389 13.5973 137.082 14.28C137.786 14.9627 138.138 15.9387 138.138 17.208C138.138 18.488 137.792 19.4693 137.098 20.152C136.405 20.824 135.322 21.16 133.85 21.16ZM133.85 19.144C134.448 19.144 134.874 18.9947 135.13 18.696C135.386 18.3973 135.514 17.9013 135.514 17.208C135.514 16.5147 135.386 16.0187 135.13 15.72C134.874 15.4213 134.448 15.272 133.85 15.272C133.264 15.272 132.842 15.4213 132.586 15.72C132.33 16.0187 132.202 16.5147 132.202 17.208C132.202 17.9013 132.33 18.3973 132.586 18.696C132.842 18.9947 133.264 19.144 133.85 19.144ZM145.477 21.16C144.965 21.16 144.517 21.096 144.133 20.968C143.749 20.8293 143.403 20.6267 143.093 20.36L142.965 21H140.725V10.216H143.301V13.768C143.589 13.5973 143.915 13.4693 144.277 13.384C144.64 13.2987 145.013 13.256 145.397 13.256C146.507 13.256 147.381 13.5653 148.021 14.184C148.661 14.792 148.981 15.7787 148.981 17.144C148.981 18.5093 148.667 19.5227 148.037 20.184C147.408 20.8347 146.555 21.16 145.477 21.16ZM144.741 19.288C145.317 19.288 145.728 19.1173 145.973 18.776C146.229 18.424 146.357 17.8853 146.357 17.16C146.357 16.4133 146.224 15.8907 145.957 15.592C145.701 15.2933 145.296 15.144 144.741 15.144C144.133 15.144 143.653 15.304 143.301 15.624V18.712C143.685 19.096 144.165 19.288 144.741 19.288Z" fill="#4A5568"/>
<g filter="url(#filter0_d_0_1)">
<circle cx="19" cy="15" r="15" fill="white"/>
</g>
<g filter="url(#filter1_d_0_1)">
<path d="M22 19.5L26.5 15L22 10.5" stroke="#FF005C" stroke-width="2" stroke-linecap="round" stroke-linejoin="round"/>
<path d="M16 10.5L11.5 15L16 19.5" stroke="#FF005C" stroke-width="2" stroke-linecap="round" stroke-linejoin="round"/>
</g>
<g filter="url(#filter2_d_0_1)">
<circle cx="19" cy="15" r="15" fill="white"/>
</g>
<g filter="url(#filter3_d_0_1)">
<path d="M22 19.5L26.5 15L22 10.5" stroke="#FF005C" stroke-width="2" stroke-linecap="round" stroke-linejoin="round"/>
<path d="M16 10.5L11.5 15L16 19.5" stroke="#FF005C" stroke-width="2" stroke-linecap="round" stroke-linejoin="round"/>
</g>
<defs>
<filter id="filter0_d_0_1" x="0" y="0" width="38" height="38" filterUnits="userSpaceOnUse" color-interpolation-filters="sRGB">
<feFlood flood-opacity="0" result="BackgroundImageFix"/>
<feColorMatrix in="SourceAlpha" type="matrix" values="0 0 0 0 0 0 0 0 0 0 0 0 0 0 0 0 0 0 127 0" result="hardAlpha"/>
<feOffset dy="4"/>
<feGaussianBlur stdDeviation="2"/>
<feComposite in2="hardAlpha" operator="out"/>
<feColorMatrix type="matrix" values="0 0 0 0 0 0 0 0 0 0 0 0 0 0 0 0 0 0 0.04 0"/>
<feBlend mode="normal" in2="BackgroundImageFix" result="effect1_dropShadow_0_1"/>
<feBlend mode="normal" in="SourceGraphic" in2="effect1_dropShadow_0_1" result="shape"/>
</filter>
<filter id="filter1_d_0_1" x="6" y="6" width="26" height="26" filterUnits="userSpaceOnUse" color-interpolation-filters="sRGB">
<feFlood flood-opacity="0" result="BackgroundImageFix"/>
<feColorMatrix in="SourceAlpha" type="matrix" values="0 0 0 0 0 0 0 0 0 0 0 0 0 0 0 0 0 0 127 0" result="hardAlpha"/>
<feOffset dy="4"/>
<feGaussianBlur stdDeviation="2"/>
<feComposite in2="hardAlpha" operator="out"/>
<feColorMatrix type="matrix" values="0 0 0 0 0 0 0 0 0 0 0 0 0 0 0 0 0 0 0.04 0"/>
<feBlend mode="normal" in2="BackgroundImageFix" result="effect1_dropShadow_0_1"/>
<feBlend mode="normal" in="SourceGraphic" in2="effect1_dropShadow_0_1" result="shape"/>
</filter>
<filter id="filter2_d_0_1" x="0" y="0" width="38" height="38" filterUnits="userSpaceOnUse" color-interpolation-filters="sRGB">
<feFlood flood-opacity="0" result="BackgroundImageFix"/>
<feColorMatrix in="SourceAlpha" type="matrix" values="0 0 0 0 0 0 0 0 0 0 0 0 0 0 0 0 0 0 127 0" result="hardAlpha"/>
<feOffset dy="4"/>
<feGaussianBlur stdDeviation="2"/>
<feComposite in2="hardAlpha" operator="out"/>
<feColorMatrix type="matrix" values="0 0 0 0 0 0 0 0 0 0 0 0 0 0 0 0 0 0 0.04 0"/>
<feBlend mode="normal" in2="BackgroundImageFix" result="effect1_dropShadow_0_1"/>
<feBlend mode="normal" in="SourceGraphic" in2="effect1_dropShadow_0_1" result="shape"/>
</filter>
<filter id="filter3_d_0_1" x="6" y="6" width="26" height="26" filterUnits="userSpaceOnUse" color-interpolation-filters="sRGB">
<feFlood flood-opacity="0" result="BackgroundImageFix"/>
<feColorMatrix in="SourceAlpha" type="matrix" values="0 0 0 0 0 0 0 0 0 0 0 0 0 0 0 0 0 0 127 0" result="hardAlpha"/>
<feOffset dy="4"/>
<feGaussianBlur stdDeviation="2"/>
<feComposite in2="hardAlpha" operator="out"/>
<feColorMatrix type="matrix" values="0 0 0 0 0 0 0 0 0 0 0 0 0 0 0 0 0 0 0.04 0"/>
<feBlend mode="normal" in2="BackgroundImageFix" result="effect1_dropShadow_0_1"/>
<feBlend mode="normal" in="SourceGraphic" in2="effect1_dropShadow_0_1" result="shape"/>
</filter>
</defs>
</svg>
